<svg xmlns="http://www.w3.org/2000/svg" viewBox="0 0 96 96" role="img" aria-label="Store logo">
  <defs>
    <linearGradient id="bg" x1="12%" y1="8%" x2="88%" y2="92%">
      <stop offset="0%" stop-color="#87e6f2" />
      <stop offset="100%" stop-color="#45c8f0" />
    </linearGradient>
    <linearGradient id="ear" x1="50%" y1="0%" x2="50%" y2="100%">
      <stop offset="0%" stop-color="#fdf8f1" />
      <stop offset="100%" stop-color="#eee1d1" />
    </linearGradient>
    <linearGradient id="fur" x1="35%" y1="10%" x2="65%" y2="100%">
      <stop offset="0%" stop-color="#fffaf4" />
      <stop offset="100%" stop-color="#f0e3d6" />
    </linearGradient>
    <linearGradient id="face" x1="50%" y1="0%" x2="50%" y2="100%">
      <stop offset="0%" stop-color="#eddcc9" />
      <stop offset="100%" stop-color="#dcc5ae" />
    </linearGradient>
    <linearGradient id="tongue" x1="50%" y1="0%" x2="50%" y2="100%">
      <stop offset="0%" stop-color="#ff8b5f" />
      <stop offset="100%" stop-color="#cb3c2d" />
    </linearGradient>
  </defs>

  <rect width="96" height="96" rx="28" fill="url(#bg)" />
  <circle cx="76" cy="16" r="10" fill="rgba(255,255,255,0.18)" />
  <circle cx="16" cy="76" r="16" fill="rgba(255,255,255,0.08)" />

  <g transform="translate(0 2)">
    <path
      d="M18 36C17 21 27 16 36 18C31 22 29 30 31 39C33 48 27 53 21 52C18 48 17 42 18 36Z"
      fill="url(#ear)"
    />
    <path
      d="M29 35C29 20 40 12 53 12C68 12 78 24 78 42V62C78 76 67 86 52 86C36 86 24 75 24 61V43C24 38 26 36 29 35Z"
      fill="url(#fur)"
    />
    <ellipse cx="53" cy="44" rx="26" ry="24" fill="url(#fur)" />
    <ellipse cx="53" cy="52" rx="18" ry="11" fill="url(#face)" opacity="0.92" />

    <g>
      <ellipse cx="39" cy="31" rx="8" ry="10" fill="#efe2d1" />
      <ellipse cx="69" cy="31" rx="8" ry="10" fill="#efe2d1" />
      <path d="M31 28C33 22 38 20 44 22C44 28 40 33 33 33Z" fill="#f2dfcb" />
      <path d="M61 28C63 22 68 20 74 22C74 28 70 33 63 33Z" fill="#f2dfcb" />
      <path d="M33 30C36 28 40 28 43 30C41 34 37 35 33 33Z" fill="#c8b59f" />
      <path d="M63 30C66 28 70 28 73 30C71 34 67 35 63 33Z" fill="#c8b59f" />
      <circle cx="41" cy="30" r="1.8" fill="#6d7f96" />
      <circle cx="71" cy="30" r="1.8" fill="#6d7f96" />
    </g>

    <ellipse cx="53" cy="61" rx="18" ry="21" fill="#130d09" />
    <path d="M39 53C42 48 48 46 53 46C58 46 64 48 67 53C63 56 59 57 53 57C47 57 43 56 39 53Z" fill="#e8d3bd" />
    <rect x="47" y="48" width="4.2" height="8.2" rx="1.6" fill="#fff9f2" />
    <rect x="57" y="48.5" width="4.2" height="7.8" rx="1.6" fill="#fff9f2" />
    <path
      d="M53 60C58 59 63 64 63 71C63 78 58 82 52 82C47 82 44 79 44 74C44 68 48 62 53 60Z"
      fill="url(#tongue)"
    />
  </g>
</svg>
